PathFileType	4	(X/Y/Z)	C:\Users\willi\Documents\UniDataLokal\DATA_Hans_PhD\TD06\B\3DGAIT_B_W12\marker_experimental.trc
DataRate	CameraRate	NumFrames	NumMarkers	Units	OrigDataRate	OrigDataStartFrame	OrigNumFrames
100.000000	100.000000	4	86	mm	100.000000	74	99
Frame#	Time	RBAK			C7			CLAV			T10			STRN			RASI			RPSI			LPSI			LASI			LPELV			RPELV			RTHI1			RTHI2			RTHI3			RTHI			RKNE			RPAT			RLKNEL			RLKNEM			RLPAT			RTIB1			RTIB2			RTIB3			RTIB			RANK			RHEEL			RTOE			RM5			LTHI1			LTHI2			LTHI3			LTHI			LKNE			LPAT			LLKNE			LLKNEM			LLPAT			LTIB1			LTIB2			LTIB3			LTIB			LANK			LHEEL			LTOE			LM5			*45			*46			*47			*48			*49			*50			*51			*52			*53			*54			*55			*56			*57			*58			*59			*60			*61			*62			*63			*64			*65			*66			*67			*68			*69			*70			*71			*72			*73			*74			*75			*76			*77			*78			*79			*80			*81			*82			*83			*84			*85			
		X1	Y1	Z1	X2	Y2	Z2	X3	Y3	Z3	X4	Y4	Z4	X5	Y5	Z5	X6	Y6	Z6	X7	Y7	Z7	X8	Y8	Z8	X9	Y9	Z9	X10	Y10	Z10	X11	Y11	Z11	X12	Y12	Z12	X13	Y13	Z13	X14	Y14	Z14	X15	Y15	Z15	X16	Y16	Z16	X17	Y17	Z17	X18	Y18	Z18	X19	Y19	Z19	X20	Y20	Z20	X21	Y21	Z21	X22	Y22	Z22	X23	Y23	Z23	X24	Y24	Z24	X25	Y25	Z25	X26	Y26	Z26	X27	Y27	Z27	X28	Y28	Z28	X29	Y29	Z29	X30	Y30	Z30	X31	Y31	Z31	X32	Y32	Z32	X33	Y33	Z33	X34	Y34	Z34	X35	Y35	Z35	X36	Y36	Z36	X37	Y37	Z37	X38	Y38	Z38	X39	Y39	Z39	X40	Y40	Z40	X41	Y41	Z41	X42	Y42	Z42	X43	Y43	Z43	X44	Y44	Z44	X45	Y45	Z45	X46	Y46	Z46	X47	Y47	Z47	X48	Y48	Z48	X49	Y49	Z49	X50	Y50	Z50	X51	Y51	Z51	X52	Y52	Z52	X53	Y53	Z53	X54	Y54	Z54	X55	Y55	Z55	X56	Y56	Z56	X57	Y57	Z57	X58	Y58	Z58	X59	Y59	Z59	X60	Y60	Z60	X61	Y61	Z61	X62	Y62	Z62	X63	Y63	Z63	X64	Y64	Z64	X65	Y65	Z65	X66	Y66	Z66	X67	Y67	Z67	X68	Y68	Z68	X69	Y69	Z69	X70	Y70	Z70	X71	Y71	Z71	X72	Y72	Z72	X73	Y73	Z73	X74	Y74	Z74	X75	Y75	Z75	X76	Y76	Z76	X77	Y77	Z77	X78	Y78	Z78	X79	Y79	Z79	X80	Y80	Z80	X81	Y81	Z81	X82	Y82	Z82	X83	Y83	Z83	X84	Y84	Z84	X85	Y85	Z85	X86	Y86	Z86	

75	0.74	1465.835083007812	1081.17236328125	-216.3870697021482	1483.378784179688	1160.923706054688	-317.745422363281	1590.048950195312	1107.737670898438	-315.1094055175778	1465.704711914062	928.9080810546876	-314.2549743652341	1637.463623046875	994.8832397460939	-313.7307128906247	1560.937622070312	791.2333374023439	-208.1255798339841	1439.573608398438	827.3448486328126	-264.3392639160153	1446.248779296875	830.3425292968751	-353.4808654785153	1567.4716796875	792.4348754882814	-404.3847656249997	1536.29345703125	832.6003417968751	-421.3715820312497	1512.88623046875	842.8325195312501	-195.1466217041013	1651.1787109375	526.1311645507814	-242.1309661865231	1623.790405273438	562.8983154296876	-189.7630767822263	1641.627685546875	464.5306396484376	-205.9083862304684	1598.546508789062	483.5169982910157	-147.0934448242185	1613.921997070312	416.7087707519532	-197.0218353271482	1670.467651367188	421.3951416015626	-241.1753845214841	1612.151245117188	390.1949462890626	-200.9357757568357	1606.98974609375	380.3562927246095	-300.1596984863278	1635.377685546875	354.2908020019532	-236.2999420166012	1594.84033203125	282.6588134765626	-224.3170928955075	1542.584350585938	260.0913085937501	-190.9808044433591	1543.472045898438	205.649398803711	-231.0800323486325	1495.872680664062	227.7098236083985	-164.9904327392575	1450.007568359375	110.0987472534181	-216.102355957031	1402.390747070312	109.9745025634766	-264.2945556640622	1547.053466796875	52.31458282470712	-229.068908691406	1519.212646484375	37.49872207641611	-191.2142944335935	1528.822021484375	559.7168579101564	-432.2123413085935	1559.598388671875	511.422332763672	-397.1711120605466	1515.760009765625	463.6805419921876	-414.3775939941403	1513.186401367188	501.6703186035157	-463.7370910644528	1501.17529296875	400.3439331054689	-406.1770324707028	1554.042724609375	407.153778076172	-369.1676635742185	1488.114501953125	372.6181030273439	-406.5272216796872	1497.773559570312	370.9730834960939	-303.8143615722653	1535.682373046875	356.0410156250001	-364.8506164550778	1508.846069335938	249.6580047607423	-374.6356201171872	1455.6826171875	210.2246093750001	-398.7659912109372	1489.845336914062	156.4542694091798	-361.2904052734372	1427.328491210938	161.516815185547	-421.7859802246091	1434.231811523438	61.63931655883798	-370.2627868652341	1388.982788085938	52.70976638793954	-332.7756347656248	1552.976806640625	33.55096054077158	-339.210021972656	1525.8779296875	13.01407718658457	-387.2018127441403	nan	nan	nan	nan	nan	nan	nan	nan	nan	nan	nan	nan	nan	nan	nan	nan	nan	nan	nan	nan	nan	nan	nan	nan	nan	nan	nan	nan	nan	nan	nan	nan	nan	nan	nan	nan	nan	nan	nan	nan	nan	nan	nan	nan	nan	nan	nan	nan	nan	nan	nan	nan	nan	nan	nan	nan	nan	nan	nan	nan	nan	nan	nan	nan	nan	nan	nan	nan	nan	nan	nan	nan	nan	nan	nan	nan	nan	nan	nan	nan	nan	nan	nan	nan	nan	nan	nan	nan	nan	nan	nan	nan	nan	nan	nan	nan	nan	nan	nan	nan	nan	nan	nan	nan	nan	nan	nan	nan	nan	nan	nan	nan	nan	nan	nan	nan	nan	nan	nan	nan	nan	nan	nan	
76	0.75	1479.04638671875	1081.270751953125	-216.6923675537107	1496.874877929688	1161.265380859375	-318.2027587890622	1603.52001953125	1107.932861328125	-314.920227050781	1478.637084960938	929.3292236328126	-314.2891845703122	1650.54736328125	994.8575439453126	-313.8919372558591	1574.211791992188	791.3790893554689	-208.5749664306638	1452.634765625	827.8989868164064	-264.015441894531	1458.828369140625	830.8843383789064	-353.2150268554685	1579.446533203125	792.2604370117189	-404.9393920898435	1548.451538085938	832.7308349609376	-421.5141601562497	1526.317504882812	843.1045532226564	-195.1903228759763	1667.455932617188	529.0374755859376	-241.6825866699216	1639.078125	565.1646728515626	-189.4019012451169	1658.724853515625	467.093719482422	-205.7217864990231	1615.107055664062	485.1936645507814	-147.1084899902341	1632.556884765625	418.9463806152345	-197.1657867431637	1688.888793945312	425.5965576171876	-240.9240417480466	1631.959716796875	392.4450988769532	-201.0524597167966	1627.804443359375	382.0700683593751	-299.9884948730466	1657.225341796875	357.7236328125001	-236.195877075195	1621.5400390625	284.1177368164064	-224.0924835205075	1570.615112304688	258.2821044921876	-190.9091949462888	1575.01904296875	203.8655700683595	-230.9875335693357	1525.870971679688	222.9452362060548	-164.9887390136716	1487.590454101562	102.4116592407227	-216.1714324951169	1440.12744140625	98.92172241210946	-264.5074462890622	1588.4453125	51.72279357910166	-227.9423675537107	1561.408935546875	35.42836380004892	-190.1500244140622	1535.546264648438	559.8912353515626	-432.9421386718747	1565.589721679688	510.818084716797	-398.4261474609372	1520.198486328125	464.245819091797	-414.905090332031	1517.729858398438	502.288543701172	-464.1505432128903	1504.37451171875	401.2623901367189	-406.420227050781	1557.782592773438	406.7498474121095	-370.1020202636716	1490.800170898438	373.7625732421876	-406.7615966796872	1501.572509765625	371.8573608398439	-304.1896362304685	1538.505615234375	356.2549133300782	-365.6272888183591	1510.639404296875	250.5572052001954	-375.3727416992185	1456.98779296875	211.7084350585938	-399.1324462890622	1491.03173828125	157.575164794922	-362.0878906249997	1427.95263671875	163.2617645263673	-421.9145202636716	1434.63134765625	62.88969039917001	-370.4747619628903	1389.58642578125	54.70465087890634	-332.8163757324216	1553.354125976562	33.57262420654306	-339.5044860839841	1525.72705078125	12.8807315826417	-387.2189025878903	nan	nan	nan	nan	nan	nan	nan	nan	nan	nan	nan	nan	nan	nan	nan	nan	nan	nan	nan	nan	nan	nan	nan	nan	nan	nan	nan	nan	nan	nan	nan	nan	nan	nan	nan	nan	nan	nan	nan	nan	nan	nan	nan	nan	nan	nan	nan	nan	nan	nan	nan	nan	nan	nan	nan	nan	nan	nan	nan	nan	nan	nan	nan	nan	nan	nan	nan	nan	nan	nan	nan	nan	nan	nan	nan	nan	nan	nan	nan	nan	nan	nan	nan	nan	nan	nan	nan	nan	nan	nan	nan	nan	nan	nan	nan	nan	nan	nan	nan	nan	nan	nan	nan	nan	nan	nan	nan	nan	nan	nan	nan	nan	nan	nan	nan	nan	nan	nan	nan	nan	nan	nan	nan	
77	0.76	1492.4111328125	1080.9775390625	-216.9544677734372	1510.4677734375	1161.174926757812	-318.6610107421872	1617.10107421875	1107.649291992188	-314.7697143554685	1491.557495117188	929.3364257812501	-314.1520690917966	1663.644287109375	994.3201293945314	-314.1129150390622	1587.552124023438	791.0217285156251	-208.997146606445	1465.731201171875	827.9320068359376	-263.5442199707028	1471.352416992188	830.9955444335939	-352.7805175781247	1591.336791992188	791.7762451171876	-405.4577941894528	1560.439208984375	832.4716796875001	-421.6086120605466	1539.84716796875	842.8621215820314	-195.1065368652341	1683.263427734375	531.1106567382814	-241.0798187255856	1653.915161132812	566.6497802734376	-188.9247283935544	1675.169311523438	468.8743591308595	-205.3989410400387	1630.912231445312	486.1598510742189	-147.0856933593747	1650.612548828125	420.539031982422	-197.26692199707	1706.591430664062	429.0935058593751	-240.5975189208981	1651.210205078125	394.1247863769532	-201.1575164794919	1647.9267578125	383.3618774414064	-299.7814331054685	1678.474731445312	360.7362060546876	-236.1359863281247	1647.957885742188	285.5213928222657	-223.9528656005856	1598.715576171875	256.385467529297	-190.7751464843747	1606.590576171875	202.3033599853516	-230.8932800292966	1556.301391601562	218.126449584961	-164.8012695312497	1525.842407226562	95.12832641601572	-216.0723876953122	1478.633666992188	88.37362670898446	-264.3627014160153	1629.9052734375	51.7458610534669	-227.3514862060544	1603.938354492188	33.85791778564463	-189.5418701171872	1542.412719726562	559.8989257812501	-433.7077636718747	1571.761352539062	510.0951538085939	-399.6879882812497	1524.922241210938	464.6714172363282	-415.4450988769528	1522.525512695312	502.7562561035157	-464.5592041015622	1507.906005859375	402.0166625976564	-406.6390380859372	1561.819213867188	406.1861572265626	-370.9286804199216	1493.831665039062	374.7473449707032	-406.9710998535153	1505.532836914062	372.5734252929689	-304.4946594238278	1541.63232421875	356.2870483398439	-366.3430175781247	1512.674682617188	251.289047241211	-376.0346374511716	1458.511596679688	213.0693817138673	-399.4493103027341	1492.37548828125	158.5765838623048	-362.8053283691403	1428.796508789062	164.9118804931641	-421.9784851074216	1435.059936523438	64.07226562500009	-370.6057434082028	1390.206420898438	56.61563491821298	-332.8673706054685	1553.75048828125	33.59059524536142	-339.7692871093747	1525.629272460938	12.7889289855958	-387.2292785644528	nan	nan	nan	nan	nan	nan	nan	nan	nan	nan	nan	nan	nan	nan	nan	nan	nan	nan	nan	nan	nan	nan	nan	nan	nan	nan	nan	nan	nan	nan	nan	nan	nan	nan	nan	nan	nan	nan	nan	nan	nan	nan	nan	nan	nan	nan	nan	nan	nan	nan	nan	nan	nan	nan	nan	nan	nan	nan	nan	nan	nan	nan	nan	nan	nan	nan	nan	nan	nan	nan	nan	nan	nan	nan	nan	nan	nan	nan	nan	nan	nan	nan	nan	nan	nan	nan	nan	nan	nan	nan	nan	nan	nan	nan	nan	nan	nan	nan	nan	nan	nan	nan	nan	nan	nan	nan	nan	nan	nan	nan	nan	nan	nan	nan	nan	nan	nan	nan	nan	nan	nan	nan	nan	
78	0.77	1505.932006835938	1080.307373046875	-217.1705017089841	1524.159057617188	1160.667236328125	-319.1139526367185	1630.796142578125	1106.910278320312	-314.654113769531	1504.49267578125	928.9396972656251	-313.8479309082028	1676.762817382812	993.3015747070314	-314.3904724121091	1600.982299804688	790.1853027343751	-209.3947906494138	1478.891845703125	827.4680786132814	-262.9263610839841	1483.853515625	830.6931762695314	-352.181213378906	1603.178588867188	790.9955444335939	-405.9360656738278	1572.302734375	831.8421630859376	-421.6516113281247	1553.495361328125	842.1286621093751	-194.9051971435544	1698.593505859375	532.3448486328126	-240.4267425537106	1668.356079101562	567.3553466796876	-188.4075012207028	1691.012573242188	469.867889404297	-205.0165405273434	1646.0703125	486.4060363769532	-147.0502166748044	1668.099853515625	421.4843139648439	-197.37287902832	1723.585693359375	431.8658447265626	-240.2806701660153	1669.895385742188	395.2385864257814	-201.2968902587887	1667.324340820312	384.2119445800782	-299.600402832031	1699.099365234375	363.3207092285157	-236.1708374023434	1674.018432617188	286.9204406738282	-223.9395446777341	1626.817504882812	254.5052947998048	-190.6269836425778	1638.097534179688	201.0638885498048	-230.8297729492184	1587.115966796875	213.4136962890626	-164.4857635498044	1564.689331054688	88.44350433349619	-215.8487701416013	1517.83935546875	78.50505065917979	-263.9464416503903	1671.343627929688	52.50852966308604	-227.2857666015622	1646.719116210938	32.98884582519541	-189.3748474121091	1549.460205078125	559.7332153320314	-434.4735107421872	1578.13232421875	509.243133544922	-400.8919372558591	1529.961791992188	464.9440307617189	-415.9689941406247	1527.65478515625	503.0579223632814	-464.9431152343747	1511.778686523438	402.5911865234376	-406.8233337402341	1566.140625	405.4692687988282	-371.6022949218747	1497.221069335938	375.5603942871095	-407.150451660156	1509.624755859375	373.1061096191407	-304.727111816406	1545.057373046875	356.1315307617189	-366.9575195312497	1514.952880859375	251.8429260253907	-376.6061706542966	1460.254028320312	214.2871856689454	-399.7161560058591	1493.873779296875	159.4451446533204	-363.4355773925778	1429.868041992188	166.4509735107423	-422.0011901855466	1435.512084960938	65.17870330810555	-370.6732177734372	1390.837280273438	58.42531967163094	-332.9389343261716	1554.136840820312	33.58855819702158	-339.9986877441403	1525.593872070312	12.73830223083506	-387.2405090332028	nan	nan	nan	nan	nan	nan	nan	nan	nan	nan	nan	nan	nan	nan	nan	nan	nan	nan	nan	nan	nan	nan	nan	nan	nan	nan	nan	nan	nan	nan	nan	nan	nan	nan	nan	nan	nan	nan	nan	nan	nan	nan	nan	nan	nan	nan	nan	nan	nan	nan	nan	nan	nan	nan	nan	nan	nan	nan	nan	nan	nan	nan	nan	nan	nan	nan	nan	nan	nan	nan	nan	nan	nan	nan	nan	nan	nan	nan	nan	nan	nan	nan	nan	nan	nan	nan	nan	nan	nan	nan	nan	nan	nan	nan	nan	nan	nan	nan	nan	nan	nan	nan	nan	nan	nan	nan	nan	nan	nan	nan	nan	nan	nan	nan	nan	nan	nan	nan	nan	nan	nan	nan	nan	
